<svg xmlns="http://www.w3.org/2000/svg" width="34.638" height="29.392" viewBox="0 0 34.638 29.392"><g transform="translate(0 -29.8)"><path d="M272.675,61.4l-10.668-5.128-.08-23.248a.735.735,0,0,1,1.054-.665l10.114,4.863a.735.735,0,0,1,.417.663v22.99A.583.583,0,0,1,272.675,61.4Z" transform="translate(-238.873 -2.268)" fill="#fff"/><path d="M143.206,54.006,131.66,48.454l11.115-18.3a.735.735,0,0,1,.947-.281L153.978,34.8a.735.735,0,0,1,.309,1.046Z" transform="translate(-120.072 0)" fill="#e4e4e4"/><path d="M32.654,59.785,21.108,54.234,10.525,37a.565.565,0,0,1,.726-.8l9.857,4.74Z" transform="translate(-9.52 -5.779)" fill="#d3d3d3"/><path d="M10.752,60.342.33,55.33A.583.583,0,0,1,0,54.8V31.689a.565.565,0,0,1,.809-.509l10.779,5.183V59.816A.583.583,0,0,1,10.752,60.342Z" transform="translate(0 -1.207)" fill="#c4c4c4"/></g></svg>