<svg xmlns="http://www.w3.org/2000/svg" width="15.656" height="18.316" viewBox="0 0 15.656 18.316">
  <g id="avatar" transform="translate(0.251 0.25)">
    <g id="Group_512" data-name="Group 512">
      <path id="Path_587" data-name="Path 587" d="M140.868,9.6h.118a3.4,3.4,0,0,0,2.6-1.125c1.42-1.6,1.184-4.346,1.158-4.608A3.764,3.764,0,0,0,142.956.52,4.1,4.1,0,0,0,140.971,0h-.063a4.108,4.108,0,0,0-1.985.505,3.766,3.766,0,0,0-1.811,3.361c-.026.262-.262,3.007,1.158,4.608A3.391,3.391,0,0,0,140.868,9.6ZM138.1,3.959c0-.011,0-.022,0-.03.122-2.645,2-2.929,2.8-2.929h.044c1,.022,2.69.428,2.8,2.929a.072.072,0,0,0,0,.03c0,.026.262,2.535-.911,3.855a2.418,2.418,0,0,1-1.9.79h-.037a2.41,2.41,0,0,1-1.9-.79C137.842,6.5,138.093,3.981,138.1,3.959Z" transform="translate(-133.355)" fill="#744cc7" stroke="#744cc7" stroke-width="0.5"/>
      <path id="Path_588" data-name="Path 588" d="M51.226,263.832v-.011c0-.03,0-.059,0-.092-.022-.73-.07-2.439-1.671-2.985l-.037-.011a10.647,10.647,0,0,1-3.062-1.395.5.5,0,1,0-.572.815,11.491,11.491,0,0,0,3.368,1.538c.86.306.956,1.225.981,2.066a.741.741,0,0,0,0,.092,6.7,6.7,0,0,1-.077,1.14,13.577,13.577,0,0,1-6.5,1.513,13.656,13.656,0,0,1-6.508-1.516,6.34,6.34,0,0,1-.077-1.14c0-.03,0-.059,0-.092.026-.841.122-1.76.981-2.066a11.6,11.6,0,0,0,3.368-1.538.5.5,0,0,0-.572-.815,10.527,10.527,0,0,1-3.062,1.395l-.037.011c-1.6.55-1.649,2.258-1.671,2.985a.741.741,0,0,1,0,.092v.011a5.657,5.657,0,0,0,.188,1.671.474.474,0,0,0,.192.232,13.955,13.955,0,0,0,7.2,1.764,14,14,0,0,0,7.2-1.764.494.494,0,0,0,.192-.232A5.936,5.936,0,0,0,51.226,263.832Z" transform="translate(-36.073 -249.68)" fill="#744cc7" stroke="#744cc7" stroke-width="0.5"/>
    </g>
  </g>
</svg>
