<svg xmlns="http://www.w3.org/2000/svg" width="17.48" height="17.877" viewBox="0 0 17.48 17.877">
  <g id="calendar" opacity="0.35">
    <g id="Group_2228" data-name="Group 2228">
      <path id="Path_26017" data-name="Path 26017" d="M119.262,258.647a.406.406,0,0,0-.406-.405h-1.416a.406.406,0,0,0-.406.405v1.416a.406.406,0,0,0,.406.406h1.416a.406.406,0,0,0,.406-.406v-1.416Z" transform="translate(-112.947 -248.785)" fill="#a5a5a5"/>
      <path id="Path_26018" data-name="Path 26018" d="M215.9,258.647a.405.405,0,0,0-.405-.405h-1.416a.406.406,0,0,0-.406.405v1.416a.406.406,0,0,0,.406.406h1.416a.406.406,0,0,0,.405-.406Z" transform="translate(-206.043 -248.785)" fill="#a5a5a5"/>
      <path id="Path_26019" data-name="Path 26019" d="M312.525,258.647a.406.406,0,0,0-.406-.405H310.7a.406.406,0,0,0-.406.405v1.416a.406.406,0,0,0,.406.406h1.416a.406.406,0,0,0,.406-.406Z" transform="translate(-299.133 -248.785)" fill="#a5a5a5"/>
      <path id="Path_26020" data-name="Path 26020" d="M119.262,355.281a.405.405,0,0,0-.406-.406h-1.416a.405.405,0,0,0-.406.406V356.7a.406.406,0,0,0,.406.406h1.416a.406.406,0,0,0,.406-.406v-1.416Z" transform="translate(-112.947 -341.879)" fill="#a5a5a5"/>
      <path id="Path_26021" data-name="Path 26021" d="M215.9,355.281a.405.405,0,0,0-.405-.406h-1.416a.405.405,0,0,0-.406.406V356.7a.406.406,0,0,0,.406.406h1.416a.405.405,0,0,0,.405-.406Z" transform="translate(-206.043 -341.879)" fill="#a5a5a5"/>
      <path id="Path_26022" data-name="Path 26022" d="M312.525,355.281a.405.405,0,0,0-.405-.406H310.7a.405.405,0,0,0-.406.406V356.7a.406.406,0,0,0,.406.406h1.416a.405.405,0,0,0,.405-.406v-1.416Z" transform="translate(-299.133 -341.879)" fill="#a5a5a5"/>
      <path id="Path_26023" data-name="Path 26023" d="M21.335,54.15v2.162a1.766,1.766,0,0,1-1.77,1.765H18.448a1.775,1.775,0,0,1-1.781-1.765v-2.17H11.635v2.17a1.775,1.775,0,0,1-1.781,1.765H8.737a1.766,1.766,0,0,1-1.77-1.765V54.15a1.61,1.61,0,0,0-1.556,1.6V68.424a1.61,1.61,0,0,0,1.6,1.612H21.289a1.612,1.612,0,0,0,1.6-1.612V55.751A1.61,1.61,0,0,0,21.335,54.15Zm-.519,13.485a.693.693,0,0,1-.693.693H8.148a.693.693,0,0,1-.693-.693V61.089a.693.693,0,0,1,.693-.693H20.124a.693.693,0,0,1,.693.693v6.546Z" transform="translate(-5.411 -52.159)" fill="#a5a5a5"/>
      <path id="Path_26024" data-name="Path 26024" d="M80.157,4.759h1.1a.607.607,0,0,0,.607-.607V.607A.607.607,0,0,0,81.262,0h-1.1a.607.607,0,0,0-.607.607V4.152A.607.607,0,0,0,80.157,4.759Z" transform="translate(-76.835)" fill="#a5a5a5"/>
      <path id="Path_26025" data-name="Path 26025" d="M345.065,4.759h1.1a.607.607,0,0,0,.607-.607V.607A.607.607,0,0,0,346.17,0h-1.1a.607.607,0,0,0-.607.607V4.152A.607.607,0,0,0,345.065,4.759Z" transform="translate(-332.042)" fill="#a5a5a5"/>
    </g>
  </g>
</svg>
