<svg id="error" xmlns="http://www.w3.org/2000/svg" width="16.164" height="16.164" viewBox="0 0 16.164 16.164">
  <path id="Path_54" data-name="Path 54" d="M16.025,4.6,11.568.139A.474.474,0,0,0,11.233,0H4.93A.474.474,0,0,0,4.6.139L.139,4.6A.474.474,0,0,0,0,4.93v6.3a.474.474,0,0,0,.139.335L4.6,16.025a.474.474,0,0,0,.335.139h6.3a.474.474,0,0,0,.335-.139l4.457-4.457a.474.474,0,0,0,.139-.335V4.93A.473.473,0,0,0,16.025,4.6Zm-7.943,8.7a1.421,1.421,0,0,1-1.419-1.419v0a1.419,1.419,0,1,1,1.419,1.422ZM9.659,3.386,9.184,9.069a.474.474,0,0,1-.472.434H7.452a.474.474,0,0,1-.472-.434L6.505,3.386a.474.474,0,0,1,.472-.513h2.21A.474.474,0,0,1,9.659,3.386Z" transform="translate(0 0)" fill="#a5a5a5"/>
</svg>
