<svg xmlns="http://www.w3.org/2000/svg" width="7.691" height="13.667" viewBox="0 0 7.691 13.667">
  <g id="next" transform="translate(7.191 13.167) rotate(180)">
    <g id="Path_97" data-name="Path 97" transform="translate(0)" fill="#7140e0">
      <path d="M 0.3577101826667786 12.91708946228027 C 0.1991001963615417 12.91708946228027 0.04275019094347954 12.85169982910156 -0.07125981152057648 12.73766994476318 C -0.1865098029375076 12.62242984771729 -0.2499898076057434 12.4696102142334 -0.2499898076057434 12.30739974975586 C -0.2499898076057434 12.14517974853516 -0.1865098029375076 11.99236011505127 -0.07123980671167374 11.87709999084473 L 5.472630500793457 6.3332200050354 L -0.07124981284141541 0.7893299460411072 C -0.1865098029375076 0.6740699410438538 -0.2499898076057434 0.5212499499320984 -0.2499898076057434 0.3590399324893951 C -0.2499898076057434 0.196819931268692 -0.1865098029375076 0.04399992898106575 -0.07123980671167374 -0.07126007229089737 C 0.04402019083499908 -0.1865200698375702 0.1968301832675934 -0.2500000596046448 0.3590402007102966 -0.2500000596046448 C 0.5212501883506775 -0.2500000596046448 0.6740601658821106 -0.1865200698375702 0.7893301844596863 -0.07126007229089737 L 6.764840126037598 5.904250144958496 C 6.879380226135254 6.018789768218994 6.942039966583252 6.171700000762939 6.94126033782959 6.33480978012085 C 6.940490245819092 6.497879981994629 6.876290321350098 6.65024995803833 6.760490417480469 6.763859748840332 L 0.7866801619529724 12.73768997192383 C 0.6781201958656311 12.85048007965088 0.5205702185630798 12.91708946228027 0.3577101826667786 12.91708946228027 Z" stroke="none"/>
      <path d="M 0.3590412139892578 2.86102294921875e-06 C 0.2674574851989746 2.86102294921875e-06 0.175875186920166 0.03517532348632813 0.1055302619934082 0.1055202484130859 C -0.03516960144042969 0.2462100982666016 -0.03516960144042969 0.4718503952026367 0.1055302619934082 0.6125497817993164 L 5.826189994812012 6.3332200050354 L 0.1055302619934082 12.053879737854 C -0.03516960144042969 12.19456958770752 -0.03516960144042969 12.42020988464355 0.1055302619934082 12.56091022491455 C 0.1745400428771973 12.6299295425415 0.2674603462219238 12.66708946228027 0.3577103614807129 12.66708946228027 C 0.4479703903198242 12.66708946228027 0.5408802032470703 12.6325798034668 0.6098999977111816 12.56091022491455 L 6.585410118103027 6.585400104522705 C 6.726109981536865 6.447360038757324 6.726109981536865 6.219069957733154 6.58806037902832 6.081029891967773 L 0.6125602722167969 0.1055202484130859 C 0.5422101020812988 0.03517532348632813 0.4506254196166992 2.86102294921875e-06 0.3590412139892578 2.86102294921875e-06 M 0.3590402603149414 -0.5 C 0.5880303382873535 -0.5 0.8036303520202637 -0.4105195999145508 0.9661102294921875 -0.2480297088623047 L 6.941610336303711 5.727479934692383 C 7.103690147399902 5.88953971862793 7.192350387573242 6.105659961700439 7.19126033782959 6.335999965667725 C 7.190160274505615 6.566299915313721 7.09935998916626 6.781620025634766 6.935570240020752 6.942309856414795 L 0.9662303924560547 12.9116792678833 C 0.8077507019042969 13.07406520843506 0.5862979888916016 13.16708946228027 0.3577103614807129 13.16708946228027 C 0.1332802772521973 13.16708946228027 -0.0875096321105957 13.07499980926514 -0.2480497360229492 12.9144401550293 C -0.4105095863342285 12.75197982788086 -0.5 12.53637981414795 -0.5 12.3073902130127 C -0.5 12.07839012145996 -0.4105095863342285 11.86279964447021 -0.2480096817016602 11.70030975341797 L 5.11909008026123 6.333219528198242 L -0.2480196952819824 0.966099739074707 C -0.4105095863342285 0.8036203384399414 -0.5 0.5880203247070313 -0.5 0.3590297698974609 C -0.5 0.1300296783447266 -0.4105095863342285 -0.08555984497070313 -0.2480096817016602 -0.2480497360229492 C -0.08556985855102539 -0.4105100631713867 0.1300301551818848 -0.5 0.3590402603149414 -0.5 Z" stroke="none" fill="#7140e0"/>
    </g>
  </g>
</svg>
