<svg id="share_4_" data-name="share (4)" xmlns="http://www.w3.org/2000/svg" width="20.649" height="22.851" viewBox="0 0 20.649 22.851">
  <g id="Group_80" data-name="Group 80" transform="translate(0 0)">
    <path id="Path_263" data-name="Path 263" d="M37.687,16.164a3.328,3.328,0,0,0-2.254.883L27.26,12.281a3.174,3.174,0,0,0,0-1.606l8.087-4.721a3.434,3.434,0,1,0-1.1-2.512,3.386,3.386,0,0,0,.1.8L26.262,8.966a3.441,3.441,0,1,0,0,5.025l8.173,4.766a3.246,3.246,0,0,0-.092.751,3.344,3.344,0,1,0,3.344-3.344Z" transform="translate(-20.48 -0.001)" fill="#7140e0"/>
  </g>
</svg>
