<svg id="star" xmlns="http://www.w3.org/2000/svg" width="13.17" height="12.564" viewBox="0 0 13.17 12.564">
  <g id="Group_81" data-name="Group 81" transform="translate(0 0)">
    <path id="Path_264" data-name="Path 264" d="M13.152,16.567a.386.386,0,0,0-.311-.263l-4.083-.593-1.826-3.7a.386.386,0,0,0-.692,0l-1.826,3.7L.33,16.3a.386.386,0,0,0-.214.658l2.954,2.88-.7,4.066a.386.386,0,0,0,.56.407L6.585,22.4l3.652,1.92a.386.386,0,0,0,.56-.407l-.7-4.066,2.955-2.88A.386.386,0,0,0,13.152,16.567Z" transform="translate(0 -11.796)" fill="#7140e0"/>
  </g>
</svg>
