<svg xmlns="http://www.w3.org/2000/svg" width="20.715" height="19.761" viewBox="0 0 20.715 19.761">
  <g id="star2" transform="translate(0)" opacity="0.26">
    <g id="Group_81" data-name="Group 81" transform="translate(0 0)">
      <path id="Path_264" data-name="Path 264" d="M20.685,19.3a.607.607,0,0,0-.49-.413l-6.422-.933L10.9,12.134a.607.607,0,0,0-1.088,0L6.941,17.953.52,18.887a.607.607,0,0,0-.336,1.035l4.647,4.53-1.1,6.4a.607.607,0,0,0,.881.64l5.744-3.02,5.744,3.02a.607.607,0,0,0,.881-.64l-1.1-6.4,4.647-4.53A.607.607,0,0,0,20.685,19.3Z" transform="translate(0 -11.796)" fill="#7140e0"/>
    </g>
  </g>
</svg>
